<svg fill="none" height="240" viewBox="0 0 320 240" width="320" xmlns="http://www.w3.org/2000/svg">
<g clip-path="url(#clip0_105_2)">
<rect fill="#196ee6" fill-opacity="0.1" height="160" rx="16" width="260" x="30" y="50"></rect>
<rect height="160" rx="16" stroke="#196ee6" stroke-opacity="0.3" stroke-width="2" width="260" x="30" y="50"></rect>
<rect fill="#196ee6" fill-opacity="0.2" height="12" rx="6" width="80" x="50" y="70"></rect>
<rect fill="#196ee6" fill-opacity="0.1" height="8" rx="4" width="120" x="50" y="98"></rect>
<rect fill="#196ee6" fill-opacity="0.1" height="8" rx="4" width="160" x="50" y="118"></rect>
<path d="M110 160L140 130L170 160L200 130L230 160" stroke="#196ee6" stroke-linecap="round" stroke-linejoin="round" stroke-opacity="0.4" stroke-width="3"></path>
<circle cx="250" cy="80" r="12" stroke="#196ee6" stroke-opacity="0.3" stroke-width="2"></circle>
<path d="M250 76V80H254" stroke="#196ee6" stroke-linecap="round" stroke-linejoin="round" stroke-opacity="0.3" stroke-width="2"></path>
<g filter="url(#filter0_d_105_2)">
<rect class="dark:fill-card-dark" fill="#FFFFFF" height="60" rx="16" width="180" x="70" y="30"></rect>
<rect class="dark:stroke-border-dark" height="59" rx="15.5" stroke="#e2e8f0" width="179" x="70.5" y="30.5"></rect>
</g>
<rect fill="#196ee6" height="20" rx="6" width="20" x="90" y="50"></rect>
<rect fill="#196ee6" fill-opacity="0.5" height="12" rx="6" width="80" x="120" y="54"></rect>
</g>
<defs>
<filter color-interpolation-filters="sRGB" filterUnits="userSpaceOnUse" height="100" id="filter0_d_105_2" width="220" x="50" y="14">
<feFlood flood-opacity="0" result="BackgroundImageFix"></feFlood>
<feColorMatrix in="SourceAlpha" result="hardAlpha" type="matrix" values="0 0 0 0 0 0 0 0 0 0 0 0 0 0 0 0 0 0 127 0"></feColorMatrix>
<feOffset dy="4"></feOffset>
<feGaussianBlur stdDeviation="10"></feGaussianBlur>
<feComposite in2="hardAlpha" operator="out"></feComposite>
<feColorMatrix type="matrix" values="0 0 0 0 0.0627451 0 0 0 0 0.0941176 0 0 0 0 0.156863 0 0 0 0.05 0"></feColorMatrix>
<feBlend in2="BackgroundImageFix" mode="normal" result="effect1_dropShadow_105_2"></feBlend>
<feBlend in="SourceGraphic" in2="effect1_dropShadow_105_2" mode="normal" result="shape"></feBlend>
</filter>
<clipPath id="clip0_105_2">
<rect fill="white" height="240" width="320"></rect>
</clipPath>
</defs>
</svg>